<?xml version="1.0" encoding="utf-8"?><!DOCTYPE svg PUBLIC "-//W3C//DTD SVG 1.1//EN" "http://www.w3.org/Graphics/SVG/1.1/DTD/svg11.dtd"><svg version="1.1" id="Contours" xmlns="http://www.w3.org/2000/svg" xmlns:xlink="http://www.w3.org/1999/xlink" x="0px" y="0px" width="1882.846436px" height="1882.846436px" viewBox="0.000001 0.000000 1882.846436 1113.530640" enable-background="new 0 0 1882.846436 1882.846436" xml:space="preserve" stroke="black" fill="none" stroke-linecap='round' stroke-linejoin='round'><path class="selected"  fill="#443f42" opacity="1.000000" stroke="none" 
 	d="
M918.096381 737.899372 C906.984137 761.227131 895.438483 783.973469 880.227362 804.520588 C873.681098 813.363239 866.429572 822.008442 855.174689 825.682941 C845.524359 828.833515 835.087775 824.362629 829.858893 816.807270 C822.773444 806.569233 819.846503 794.898090 817.765998 782.800312 C814.497138 763.792683 816.334052 744.677143 815.913397 725.613483 C815.802619 720.594624 816.884833 715.546650 816.734686 710.532490 C816.602728 706.125935 815.607611 701.728168 814.694281 697.389606 C814.606818 696.974018 811.818366 696.404194 811.263190 696.933430 C808.684577 699.391315 806.568976 702.326618 804.070990 704.878986 C797.737128 711.350544 790.989386 710.610493 785.831244 703.066364 C784.551581 701.194782 783.083991 699.451618 781.702826 697.649372 C780.750739 699.852070 779.729376 702.027790 778.858649 704.262165 C775.503058 712.873005 772.910163 721.873981 768.673834 730.023029 C764.252997 738.527119 758.471686 741.714985 750.242804 739.598530 C745.632880 738.412922 742.339728 733.528889 741.753424 728.736469 C741.500617 726.669636 740.232184 724.727070 739.424994 722.728046 C738.565436 724.652851 737.308295 726.499103 736.910102 728.515095 C734.088324 742.801594 729.259589 756.336079 721.240119 768.500507 C719.455939 771.206928 715.981452 773.663349 712.844794 774.427753 C706.922309 775.871113 703.033942 773.472431 701.206793 767.345356 C698.934394 759.725422 696.716925 751.902912 696.045905 744.034016 C694.968634 731.402241 695.111334 718.661701 694.901435 705.964374 C694.856879 703.275349 695.701178 700.578327 695.752997 697.877705 C695.773444 696.811909 694.747321 695.726093 694.197821 694.649372 C693.407660 695.489216 692.236701 696.195820 691.888983 697.190327 C689.646735 703.602680 687.727301 710.129108 685.438422 716.523762 C675.360358 744.679401 665.379218 772.871967 655.004950 800.918720 C644.637580 828.947163 634.191474 856.956562 623.113104 884.708149 C615.979865 902.576862 608.156867 920.219135 599.630438 937.462116 C595.348639 946.121296 589.140936 953.922871 583.161627 961.612568 C579.536200 966.274982 574.723212 965.692097 570.254889 961.601765 C560.990790 953.121540 557.440131 942.327045 556.818183 930.142963 C555.744574 909.110493 560.664252 889.107014 566.710394 869.231892 C570.814215 855.741474 574.166693 842.015827 578.492682 828.600971 C588.063910 798.920612 597.943061 769.338276 607.907599 739.787067 C610.659979 731.624775 614.169867 723.718647 617.279669 715.674702 C617.511237 715.075642 617.516608 713.797993 617.289801 713.710529 C615.992072 713.210224 614.513373 712.514301 613.241095 712.731892 C608.619452 713.522602 604.045966 714.608540 599.471259 715.656879 C585.013983 718.969746 570.538703 722.209736 556.121344 725.689411 C547.519110 727.765583 539.051032 730.395771 530.454779 732.499409 C513.488776 736.651325 496.435858 740.451679 479.491217 744.687031 C454.744147 750.872761 430.064490 757.328083 405.349188 763.641376 C380.477851 769.994587 355.539160 776.094562 330.741522 782.722736 C312.634680 787.562519 294.702246 793.056904 276.703528 798.298847 C248.894049 806.398029 221.094214 814.530292 193.290564 822.649555 C173.069876 828.554401 152.853781 834.474995 132.628241 840.363239 C100.203513 849.803059 67.820166 859.390766 35.312422 868.535847 C26.714385 870.954670 17.746977 872.118122 8.899283 873.549519 C6.814780 873.886799 4.255812 873.481281 2.413550 872.490620 C0.677306 871.556965 -0.958047 870.217915 0.670493 866.993549 C4.303885 859.799824 10.590445 855.724018 16.868804 851.723652 C34.124724 840.728657 52.405829 831.708576 71.547080 824.429462 C95.879065 815.176411 119.974448 805.257648 144.527838 796.640156 C185.151740 782.382404 226.032630 768.853046 266.861243 755.184040 C285.465277 748.955524 304.190344 743.086628 322.883032 737.125202 C349.238471 728.720173 375.590460 720.302875 401.989508 712.036396 C426.046790 704.503193 450.142768 697.091389 474.262641 689.760761 C496.625067 682.964374 518.994574 676.182880 541.447150 669.693073 C566.325751 662.502033 591.296881 655.630329 616.239752 648.662739 C622.524542 646.907062 628.812384 645.124103 635.176703 643.702045 C641.891669 642.201740 643.939704 636.944538 645.843207 631.436298 C655.516791 603.442768 665.110053 575.421284 674.867682 547.457111 C683.097174 523.872639 691.497504 500.347675 699.850165 476.806354 C711.501898 443.966877 723.151923 411.126759 734.855780 378.305836 C743.140387 355.073566 751.434455 331.844135 759.865424 308.664722 C771.454535 276.802296 783.248664 245.014362 794.818854 213.145100 C803.604682 188.944996 812.012335 164.606739 820.901801 140.445286 C827.389350 122.812275 834.555792 105.428883 841.027899 87.790501 C842.474616 83.847950 841.588568 79.062931 842.972174 75.081333 C847.784735 61.232738 852.712714 47.399319 860.807868 34.968388 C864.370185 29.498180 867.355170 23.651730 870.926093 18.187702 C872.306586 16.075222 874.583686 14.548710 876.452338 12.755283 C877.916999 14.953342 880.543891 17.107113 880.629645 19.357685 C880.892340 26.254101 881.112494 33.393520 879.640875 40.061436 C877.040900 51.842564 873.436957 63.428379 869.726081 74.925800 C868.131476 79.866230 865.397528 84.483601 862.792182 89.024555 C862.057379 90.305256 859.689032 90.540379 858.526068 91.709049 C856.757208 93.486637 854.739020 95.434193 853.947455 97.700931 C846.774970 118.241199 839.965033 138.907902 832.819708 159.457874 C820.917548 193.687992 808.931464 227.889515 796.819098 262.045765 C787.287970 288.923084 777.441413 315.688435 767.865180 342.549915 C756.784491 373.631458 745.847724 404.764332 734.846076 435.874042 C725.181159 463.203876 715.485602 490.523029 705.855109 517.865070 C698.477301 538.811726 691.242194 559.808979 683.826300 580.742084 C678.009894 597.160236 671.961432 613.496296 666.190009 629.929951 C665.682990 631.373554 666.469611 633.271442 666.655341 634.958332 C667.950446 634.521992 669.229865 634.030292 670.543341 633.658894 C676.513495 631.970478 682.599433 630.608356 688.414008 628.496479 C690.550788 627.720356 692.982978 625.521503 693.706793 623.427631 C704.243476 592.944843 714.317145 562.301594 724.902899 531.836201 C734.971869 502.857746 745.349860 473.983601 755.915290 445.182209 C760.472968 432.757770 765.646063 420.544849 770.962836 408.421497 C772.639716 404.597889 775.433539 401.149342 778.229987 397.982899 C779.515936 396.526813 782.802924 394.934681 783.837287 395.575519 C785.706427 396.733509 787.701666 399.548725 787.652472 401.624744 C787.421942 411.358906 787.287543 421.209003 785.658698 430.768909 C783.406500 443.987019 780.079596 457.041279 776.785468 470.057514 C772.939276 485.255756 768.760199 500.373432 764.496894 515.461445 C757.712897 539.470417 750.728461 563.422626 743.852851 587.405720 C741.630622 595.157124 739.500434 602.934956 737.296271 610.691547 C735.879706 615.676716 736.670050 616.408649 741.590521 615.724384 C745.803412 615.138508 747.859320 612.335346 749.812323 609.179157 C751.945502 605.731831 753.702094 601.975361 756.270087 598.892780 C759.383063 595.155964 762.988227 596.078022 764.827277 600.642048 C765.288214 601.785908 765.771613 603.018818 765.799689 604.221210 C765.898688 608.464497 768.751776 609.276142 771.864691 608.574482 C787.384894 605.076618 802.839606 601.289082 818.337714 597.691364 C822.017157 596.837238 825.907294 596.704975 829.441107 595.487568 C831.210883 594.877827 833.330756 592.768391 833.700141 591.003864 C836.952521 575.466022 839.687201 559.820332 842.891669 544.271748 C846.016486 529.109516 849.500800 514.021076 852.849677 498.905292 C856.501776 482.420856 859.912482 465.876911 863.916937 449.478138 C868.488593 430.756947 873.094489 412.017048 878.591193 393.554920 C887.279914 364.371235 896.251654 335.252949 905.996588 306.408649 C913.685370 283.650532 922.552985 261.282703 931.205512 238.860584 C938.522833 219.898518 946.076361 201.020954 953.913153 182.268131 C959.910346 167.917637 966.259467 153.700550 972.896430 139.633900 C989.411078 104.632374 1005.922431 69.624172 1023.001166 34.897129 C1028.208075 24.309719 1035.036933 14.480801 1041.624091 4.640018 C1043.199286 2.286793 1047.363227 -0.534515 1049.300116 0.087368 C1051.994208 0.952328 1054.543280 4.536884 1055.702826 7.521343 C1060.805731 20.655949 1061.441229 34.558384 1060.710150 48.387302 C1060.006415 61.701633 1058.615424 75.018467 1056.740424 88.222599 C1054.163275 106.373325 1051.220038 124.491032 1047.751044 142.491337 C1043.483466 164.635258 1038.856513 186.723392 1033.760810 208.690845 C1027.143134 237.219288 1020.318061 265.713032 1012.815497 294.018482 C1006.747626 316.910938 999.926581 339.624103 992.741034 362.194385 C985.299994 385.566853 977.191229 408.732563 969.043769 431.872272 C963.262396 448.291920 957.212470 464.630268 950.761298 480.797016 C945.170233 494.808186 938.932624 508.565205 932.825019 522.365620 C924.845343 540.396137 916.694831 558.351032 908.693122 576.371906 C908.260932 577.345173 908.054450 579.036030 908.591864 579.651142 C909.143195 580.282124 910.781806 580.261555 911.869086 580.078266 C920.264472 578.663227 928.629279 577.065205 937.028266 575.672871 C943.761420 574.556660 950.967841 574.744160 957.131537 572.274677 C961.431952 570.551777 964.350043 565.339680 967.841254 561.644245 C975.851142 553.165913 983.799384 544.628742 991.876166 536.214863 C992.772772 535.280781 994.325385 534.957233 995.597846 534.406269 C1000.222357 532.403889 1002.599311 533.643696 1001.694525 538.437275 C1000.170233 546.514301 997.748236 554.426838 995.585028 562.376179 C994.644110 565.834003 995.779853 567.229816 999.145941 566.673054 C1009.611640 564.941730 1020.080878 563.222736 1030.574408 561.672199 C1044.732367 559.580158 1058.899726 557.537983 1073.091864 555.696003 C1080.281073 554.762836 1087.549750 554.456440 1094.753363 553.615864 C1105.049750 552.414265 1115.305365 550.858601 1125.605048 549.690205 C1133.305487 548.816608 1141.063666 548.458149 1148.768256 547.615314 C1159.730780 546.415913 1170.661200 544.928669 1181.618231 543.676105 C1185.961493 543.179707 1190.338935 542.982624 1194.700873 542.649311 C1207.786688 541.649311 1220.875922 540.693561 1233.957099 539.636188 C1245.548041 538.699238 1257.124579 537.583210 1268.716986 536.666645 C1282.296942 535.592915 1295.884833 534.616169 1309.473578 533.658405 C1324.223212 532.618793 1338.973944 531.587360 1353.731513 530.668598 C1365.949530 529.907795 1378.173651 529.215839 1390.403266 528.679340 C1401.258856 528.203144 1412.124823 527.949543 1422.987860 527.657673 C1436.682196 527.289753 1450.420478 526.169636 1464.061347 526.880512 C1477.414984 527.576435 1491.056708 527.072040 1504.007025 531.636249 C1504.303534 531.740742 1504.793891 531.506306 1504.983100 531.671467 C1506.962348 533.399677 1509.820014 534.887592 1510.500067 537.050251 C1510.906073 538.342060 1508.268500 541.542988 1506.328070 542.450458 C1499.084296 545.837849 1491.563788 548.633564 1484.143378 551.642231 C1484.000311 551.700214 1483.763251 551.580524 1483.653632 551.659565 C1481.710150 553.062336 1479.779730 554.482990 1477.846381 555.899738 C1480.056098 555.816242 1482.276435 555.842548 1484.473334 555.628498 C1490.703070 555.021381 1496.921454 554.299396 1503.147406 553.652790 C1516.093939 552.308063 1529.038642 550.944111 1541.992133 549.669819 C1546.674872 549.209064 1551.378363 548.945515 1556.076361 548.656879 C1567.298773 547.967182 1578.527777 547.378132 1589.746405 546.633747 C1603.836615 545.698811 1617.915717 544.599934 1632.005805 543.664936 C1643.224555 542.920551 1654.450385 542.274738 1665.677191 541.663837 C1673.201728 541.254353 1680.730902 540.895283 1688.262763 540.668659 C1701.622626 540.266682 1714.987494 540.032917 1728.347357 539.629475 C1735.712714 539.407001 1743.162177 538.099567 1750.414130 538.841144 C1763.746405 540.204304 1777.616034 537.974750 1790.306708 543.772053 C1793.699286 545.321796 1796.759833 548.064045 1799.230780 550.904377 C1800.056464 551.853535 1799.222479 555.650227 1797.966498 556.626972 C1796.605414 557.685444 1792.973822 557.914143 1791.876532 556.874714 C1785.819403 551.136982 1778.394354 550.780476 1770.871283 550.682941 C1760.539740 550.548908 1750.203070 550.519916 1739.872260 550.683796 C1728.341376 550.866779 1716.809638 551.198261 1705.287299 551.681171 C1692.724188 552.207844 1680.169623 552.948505 1667.614936 553.659626 C1656.721625 554.276691 1645.830756 554.943500 1634.943549 555.661396 C1625.715888 556.269794 1616.494208 556.971638 1607.271430 557.651997 C1593.851508 558.641743 1580.429877 559.610981 1567.014716 560.660725 C1554.924750 561.606769 1542.839179 562.612141 1530.757514 563.660358 C1519.833930 564.608234 1508.912177 565.587116 1498.000800 566.665546 C1485.212958 567.929523 1472.434882 569.295917 1459.656684 570.655109 C1447.372870 571.961750 1434.926459 572.475971 1422.859076 574.880939 C1410.286688 577.386494 1398.078314 581.724262 1385.716864 585.282185 C1360.998358 592.396870 1336.263617 599.456867 1311.574286 606.671406 C1291.961493 612.402546 1272.451483 618.488178 1252.812567 624.126179 C1232.978827 629.819965 1213.034735 635.128803 1193.153510 640.658161 C1177.466620 645.021015 1161.818305 649.523029 1146.122382 653.853107 C1128.015448 658.848286 1109.975897 664.161762 1091.684271 668.367512 C1086.551703 669.547749 1080.462103 667.950886 1075.118476 666.498310 C1067.394965 664.398823 1060.144354 666.109943 1053.006171 668.133991 C1042.019110 671.249348 1031.270819 675.198139 1020.355536 678.581562 C1017.802191 679.373127 1014.946478 679.770344 1012.300238 679.539814 C1008.599066 679.217365 1006.476019 680.695515 1005.123969 683.870319 C1000.651068 694.373676 993.669257 703.046772 985.292670 710.632954 C982.466986 713.191975 979.386420 715.528706 976.184027 717.598286 C972.004096 720.299580 966.224188 718.931293 961.675604 713.832050 C958.801093 710.609699 956.891059 710.391315 953.502387 713.308857 C946.552374 719.292499 938.497321 723.177753 929.279914 724.847614 C926.641364 725.325642 924.028082 727.847309 922.149237 730.064228 C920.372260 732.160969 919.574774 735.087727 918.096381 737.899372 M977.846381 188.149372 C974.076605 196.919117 970.208808 205.648243 966.560004 214.468037 C960.910224 228.124500 955.279730 241.791737 949.880438 255.548420 C943.635199 271.460834 937.503363 287.421314 931.593512 303.460865 C926.157294 318.214802 920.740790 332.992023 915.932807 347.957264 C909.970099 366.516560 904.463446 385.228718 899.102179 403.972736 C895.384345 416.970722 892.041937 430.085560 888.897223 443.235584 C884.901007 459.946613 881.194220 476.728474 877.515204 493.513203 C874.831183 505.758625 872.391242 518.057636 869.846991 530.333637 C867.843207 540.002216 865.775519 549.658283 863.867133 559.345722 C862.103034 568.300861 860.396552 577.272480 859.021735 586.291279 C858.880072 587.220478 861.330084 589.597065 862.310980 589.455524 C865.800910 588.951801 869.156195 586.933430 872.599127 586.840168 C876.444953 586.735920 877.606574 584.404255 878.816596 581.839374 C885.193915 568.321369 891.577643 554.804584 897.762030 541.197773 C906.811225 521.288227 915.963812 501.418476 924.569525 481.316425 C932.989752 461.647419 941.402716 441.934498 948.696540 421.833515 C958.956000 393.559498 968.517523 365.018269 977.725653 336.381702 C983.700141 317.801380 988.629584 298.879597 993.805976 280.050007 C997.350043 267.158314 1000.786078 254.224476 1003.773627 241.195576 C1007.135932 226.533283 1009.939643 211.742969 1012.987372 197.008533 C1015.939520 182.734821 1019.030341 168.487873 1021.795355 154.177967 C1023.475531 145.481464 1024.667060 136.690067 1026.054144 127.937519 C1027.665351 117.769993 1029.254950 107.599049 1030.844672 97.428135 C1031.847846 91.009357 1032.865058 84.592533 1033.817938 78.166233 C1034.541571 73.286854 1035.238959 68.401234 1035.787421 63.500393 C1035.888861 62.594067 1035.223334 61.601902 1034.911811 60.649395 C1034.223334 61.420223 1033.278388 62.080486 1032.890204 62.980778 C1031.123358 67.079525 1029.643744 71.304203 1027.822699 75.377186 C1021.347602 89.860142 1014.723212 104.276478 1008.251898 118.761097 C998.075629 141.538807 987.977484 164.351490 977.846381 188.149372 M1203.846381 588.149372 C1208.639716 587.649372 1213.452460 587.287739 1218.222602 586.621662 C1229.543402 585.041035 1240.831488 583.224628 1252.157538 581.685078 C1258.520575 580.820148 1264.952216 580.462238 1271.318061 579.614155 C1280.283515 578.419880 1289.199408 576.849018 1298.169257 575.692646 C1305.031073 574.808063 1311.954535 574.412434 1318.831000 573.627338 C1329.787299 572.376545 1340.731879 571.019062 1351.671820 569.631550 C1356.075629 569.073017 1360.540106 568.659138 1364.829169 567.587665 C1380.210272 563.745075 1395.501654 559.542927 1410.882636 555.699543 C1417.421210 554.065632 1424.111518 553.044208 1430.694403 551.572651 C1431.531317 551.385517 1432.134711 550.153706 1432.846381 549.405842 C1432.001044 549.153644 1431.131781 548.623249 1430.314032 548.693134 C1423.417426 549.283100 1416.542426 550.177814 1409.637763 550.607380 C1396.590644 551.419269 1383.528021 551.986042 1370.471747 552.648518 C1357.249091 553.319416 1344.025092 553.962604 1330.803656 554.654194 C1312.051703 555.635151 1293.297675 556.583881 1274.552191 557.679096 C1266.152045 558.169880 1257.774970 559.041096 1249.379950 559.636555 C1234.631903 560.682758 1219.875434 561.609272 1205.128119 562.665180 C1197.065253 563.242573 1189.006659 563.906574 1180.958930 564.666645 C1167.506415 565.937214 1154.067816 567.354267 1140.615546 568.629108 C1135.765936 569.088642 1130.876044 569.149250 1126.036566 569.683063 C1114.911322 570.910175 1103.815497 572.402546 1092.689154 573.619343 C1085.149726 574.443867 1077.561225 574.824909 1070.027045 575.687824 C1059.729315 576.867207 1049.464423 578.333698 1039.181220 579.642292 C1033.629462 580.348774 1028.055853 580.892475 1022.514716 581.670002 C1013.556952 582.926838 1004.618842 584.323078 995.670478 585.646564 C991.081610 586.325214 986.107611 586.532124 983.891669 591.565510 C979.983710 600.441791 976.302924 609.419941 972.676459 618.415668 C972.252265 619.467609 972.770941 620.899616 972.852484 622.155537 C973.677436 621.659870 974.583563 621.261860 975.314765 620.653522 C982.995429 614.263569 986.696112 614.379108 992.727362 618.091633 C998.891913 621.886127 1004.280219 620.739948 1007.866767 614.697773 C1011.473090 608.622211 1017.944281 604.946674 1023.749335 612.894978 C1024.713690 614.215351 1027.007514 615.573261 1028.465888 615.365131 C1040.359076 613.667988 1052.199408 611.600727 1064.056464 609.649860 C1076.226508 607.647480 1088.387396 605.584492 1100.571845 603.673786 C1107.802680 602.539875 1115.089911 601.764484 1122.319159 600.621296 C1132.145819 599.067402 1141.923163 597.198505 1151.755805 595.686909 C1159.478949 594.499653 1167.259589 593.692524 1175.004096 592.638325 C1184.457343 591.351520 1193.899481 589.982685 1203.846381 588.149372 M301.346381 772.649372 C318.572852 767.982685 335.733313 763.053303 353.040381 758.707539 C383.099433 751.159931 413.252967 743.988850 443.359137 736.628254 C458.177619 733.005207 472.954901 729.211872 487.792914 725.671589 C513.275519 719.591572 538.798651 713.681415 564.290167 707.638447 C582.332648 703.361225 600.318915 698.840351 618.404608 694.757282 C622.532416 693.825275 624.652838 691.850422 625.900397 688.002338 C628.038092 681.408894 630.486579 674.915119 632.866889 668.402302 C633.393500 666.961323 634.179694 665.615314 634.846381 664.225544 C632.962592 664.083942 630.929938 663.407307 629.218207 663.883808 C612.804938 668.453022 596.441718 673.202839 580.072028 677.928181 C558.497931 684.155720 536.863288 690.185200 515.378790 696.708759 C491.431891 703.979938 467.598334 711.629230 443.763556 719.264118 C422.888617 725.951008 402.092108 732.882282 381.238989 739.637897 C364.637061 745.016254 347.968817 750.191059 331.388404 755.634296 C291.944922 768.583149 252.533393 781.629353 213.126196 794.688374 C211.935004 795.083088 210.935370 796.055866 209.846381 796.759113 C211.313117 797.055866 212.945655 797.928547 214.221259 797.561359 C228.791937 793.366474 243.284705 788.901691 257.845740 784.672382 C271.983893 780.565876 286.177252 776.649311 301.346381 772.649372 M891.846442 739.149372 C894.085150 734.910664 896.732978 730.828999 898.438666 726.385700 C899.917426 722.533710 904.365546 719.386555 902.151618 714.499287 C897.964179 705.255695 895.726813 695.931232 897.719306 685.591328 C899.765021 674.974934 902.162177 664.616657 907.691840 655.187885 C908.001898 654.659260 907.425604 652.897053 906.964606 652.767658 C905.728949 652.420734 904.293524 652.443806 903.004706 652.682575 C894.351630 654.285480 885.718756 655.996357 877.074042 657.644733 C870.920233 658.818134 865.760321 660.388752 862.459174 667.129536 C858.556342 675.098957 852.530036 682.016315 847.570319 689.486774 C845.778082 692.186359 843.354743 695.051533 843.028510 698.038776 C841.604865 711.075764 840.469916 724.170490 839.954108 737.272785 C839.456305 749.917438 839.391974 762.619709 840.020392 775.252705 C840.385138 782.584675 842.404975 789.847004 843.848029 797.107258 C844.547736 800.627644 845.340705 805.441486 849.413581 805.260151 C852.282477 805.132404 855.972479 801.941669 857.610785 799.134907 C869.101447 779.449665 880.153815 759.508564 891.846442 739.149372 M625.846320 749.149372 C619.259955 770.402424 612.571662 791.624653 606.126959 812.920612 C602.492926 824.929035 599.041449 837.002338 595.900031 849.147846 C591.690375 865.423298 587.753729 881.771992 583.924384 898.141804 C582.561041 903.969501 581.741339 909.935566 580.943488 915.874775 C580.788886 917.026020 581.887519 918.345661 582.408209 919.587665 C583.220954 918.425495 584.300849 917.367084 584.799628 916.082966 C586.806464 910.916157 588.421149 905.590107 590.569098 900.486408 C595.880927 887.864460 601.655707 875.433247 606.786994 862.740436 C614.169135 844.479816 621.286383 826.108478 628.259406 807.687031 C636.925482 784.792744 645.369391 761.813984 653.828742 738.841999 C657.767707 728.145466 661.506171 717.375141 665.364020 706.648579 C665.876776 705.222980 666.558722 703.858234 667.162299 702.465351 C665.276557 702.193378 663.292914 701.407246 661.523139 701.744343 C655.865058 702.821918 650.192816 704.026325 644.722418 705.790424 C642.503058 706.506123 639.734381 708.414936 639.018317 710.423481 C634.511908 723.064777 630.513007 735.886982 625.846320 749.149372 M1203.846381 613.149311 C1206.336859 612.325458 1208.793769 611.376484 1211.323432 610.698200 C1227.667670 606.315693 1244.039984 602.038044 1260.367987 597.596394 C1262.627020 596.981892 1264.691718 595.652790 1266.846381 594.654621 C1264.279975 594.385944 1261.624091 593.554218 1259.162787 593.945881 C1248.435858 595.653034 1237.790595 597.871479 1227.066352 599.597675 C1219.196723 600.864277 1211.233588 601.538532 1203.343085 602.689411 C1195.212714 603.875385 1187.132636 605.404011 1179.006781 606.624531 C1171.451728 607.759113 1163.843085 608.545307 1156.298163 609.738483 C1146.798529 611.240742 1137.358222 613.117939 1127.857978 614.616169 C1118.441352 616.101093 1108.957709 617.165790 1099.547675 618.688007 C1088.191718 620.524921 1076.886298 622.671711 1065.551703 624.643207 C1053.893866 626.671040 1042.260565 628.889790 1030.544501 630.502399 C1027.043524 630.984272 1026.145819 632.922871 1025.940253 635.397480 C1025.596625 639.532612 1025.717719 643.722919 1025.907660 647.877949 C1025.987372 649.626057 1026.194647 651.388081 1029.169867 649.952717 C1039.935980 644.758381 1051.435492 641.687824 1063.293402 640.782246 C1073.846991 639.976276 1084.337836 641.143818 1094.268256 645.460773 C1095.472602 645.984272 1097.233100 645.771015 1098.571601 645.362019 C1120.297309 638.724079 1141.976752 631.934956 1163.708930 625.317951 C1176.884223 621.306354 1190.131415 617.530903 1203.846381 613.149311 M823.846320 647.149372 C824.513007 645.093220 825.418524 643.080524 825.802313 640.972919 C827.019782 634.286091 827.853766 627.525288 829.206244 620.868366 C830.127204 616.335895 828.823615 614.647419 824.469245 615.645283 C806.970221 619.655170 789.494940 623.776630 771.945319 627.552021 C767.995551 628.401630 766.346259 629.954243 766.778388 633.996784 C766.978827 635.871601 766.402106 637.820576 766.263068 639.742145 C765.770880 646.542988 765.265204 653.344013 764.915656 660.152607 C764.875678 660.930805 765.788458 661.758015 766.259528 662.562458 C766.788458 661.839985 767.493170 661.187641 767.814459 660.382221 C768.898566 657.664753 769.371588 654.571369 770.962958 652.220722 C773.095282 649.071125 775.571540 645.521870 778.785651 643.907612 C782.293280 642.146076 786.566046 644.982014 787.573737 648.180195 C790.282111 656.775532 794.951789 658.605305 803.222540 655.802936 C810.121527 653.465290 818.361151 654.704487 823.846320 647.149372 M899.346381 637.649372 C902.733771 636.982685 906.171332 636.501240 909.495246 635.600361 C913.268561 634.577717 917.533148 634.926716 919.945197 630.415058 C923.391303 623.969074 927.329657 617.760944 931.409369 611.687275 C934.498358 607.088642 938.157660 602.874958 941.515509 598.453693 C942.336310 597.373005 942.970160 596.150349 943.690009 594.993000 C942.101874 594.685383 940.433417 593.897724 938.938483 594.147541 C928.693488 595.859882 918.460211 597.666523 908.275336 599.703327 C903.458258 600.666706 897.733466 599.920368 894.856513 605.444782 C889.222663 616.262958 883.604315 627.089985 878.124457 637.986225 C877.649054 638.931538 878.174018 640.433247 878.426337 641.636372 C878.466376 641.827290 879.565619 641.976154 880.109809 641.853718 C886.196112 640.485249 892.269477 639.059650 899.346381 637.649372 M655.846442 662.149372 C653.018866 669.976948 650.134406 677.785480 647.492560 685.675251 C647.317572 686.197712 649.146796 688.177570 649.778693 688.059589 C654.833197 687.116169 659.786627 685.628132 664.843451 684.702045 C670.784979 683.613728 674.959235 681.490925 676.551642 674.697712 C678.225409 667.557148 681.542731 660.803608 684.109198 653.868854 C684.525275 652.744465 684.771430 651.557270 685.096137 650.399128 C683.742743 650.252705 682.309699 649.745686 681.049994 650.023762 C676.192023 651.096149 671.263556 652.070942 666.603949 653.753803 C662.489997 655.239643 656.750434 654.834248 655.846442 662.149372 M725.346442 661.649372 C724.846442 663.764301 724.065253 665.863300 723.944098 667.999714 C723.861762 669.451618 724.704657 670.955891 725.133795 672.436787 C726.371344 671.461933 727.722602 670.595905 728.801032 669.468769 C729.388495 668.854755 729.561957 667.813435 729.838935 666.938496 C732.577521 658.285908 735.301642 649.628681 738.022040 640.970295 C738.554450 639.275715 739.053107 637.570515 739.567267 635.870258 C737.319892 636.303669 734.809027 636.265400 732.911383 637.325031 C731.482367 638.123127 730.352667 640.209980 729.933234 641.928974 C728.381537 648.289509 727.179694 654.735493 725.346442 661.649372 M859.846381 620.149372 C861.600714 617.061726 863.510016 614.045185 864.986457 610.829914 C865.304206 610.137836 863.753974 607.741352 863.579901 607.795185 C860.146308 608.858417 855.743720 608.551838 854.819586 613.532612 C854.425849 615.654499 853.615729 617.698200 853.207343 619.818378 C852.346137 624.289387 851.544867 628.776447 850.929572 633.285603 C850.832953 633.993610 851.841071 634.852314 852.338324 635.641315 C852.841010 635.025654 853.514411 634.483967 853.818488 633.782307 C855.707160 629.424641 857.513129 625.031086 859.846381 620.149372 M946.846381 676.149372 C944.970648 680.025104 942.941901 683.837727 941.304267 687.811542 C940.750434 689.155537 941.186408 690.907490 941.169989 692.472980 C942.395453 691.631794 943.740973 690.918415 944.811896 689.912678 C945.840277 688.946796 946.474555 687.569843 947.471930 686.561176 C951.958197 682.023884 951.946967 676.023212 952.773139 670.321552 C952.880805 669.578449 951.993964 668.691242 951.567816 667.870808 C950.862860 668.428181 949.841498 668.843037 949.513861 669.570393 C948.633002 671.525349 948.048529 673.613911 946.846381 676.149372 M719.846381 690.149372 C719.846381 690.976582 719.633978 691.879902 719.896613 692.612995 C720.282172 693.688923 721.007331 694.643269 721.587836 695.649372 C722.340705 693.958637 723.093573 692.267841 723.846381 690.576984 C722.679755 690.267780 721.513068 689.958576 719.846381 690.149372 M799.846381 677.149372 C800.306891 676.688923 800.725165 676.173359 801.237494 675.780476 C802.043158 675.162617 802.912177 674.627521 803.754401 674.057392 C803.134772 673.588032 802.505316 672.719440 801.897528 672.734455 C800.720526 672.763447 798.661994 673.122089 798.564215 673.643330 C798.331122 674.886066 799.026190 676.302875 799.846381 677.149372 z"/><path class="selected"  fill="#443f42" opacity="1.000000" stroke="none" 
 	d="
M1418.846381 1051.649372 C1420.927069 1058.822834 1420.024848 1065.103718 1415.492987 1070.403400 C1409.614203 1077.278278 1401.439643 1076.595295 1393.930121 1075.022907 C1381.990912 1072.522907 1373.826361 1064.148640 1369.126654 1053.556477 C1365.490180 1045.360676 1359.985907 1042.110798 1351.902899 1041.678425 C1337.521430 1040.908894 1323.110175 1039.504230 1308.748847 1039.863117 C1292.282172 1040.274616 1275.831854 1042.074665 1259.420355 1043.727253 C1246.741278 1045.003864 1234.005316 1046.334186 1221.521186 1048.791462 C1199.128729 1053.198811 1176.849188 1058.226398 1154.627020 1063.440632 C1122.349433 1071.013874 1091.010687 1081.750202 1059.632025 1092.331135 C1042.809149 1098.004108 1026.011542 1103.799763 1008.986395 1108.804645 C1000.570502 1111.278644 991.686957 1112.239216 982.960028 1113.505573 C981.436103 1113.726765 978.801947 1112.445515 978.214179 1111.158039 C977.677436 1109.982014 978.715277 1107.186359 979.935004 1106.269489 C984.560126 1102.792561 989.387396 1099.519611 994.414618 1096.653767 C1016.967108 1083.796955 1040.604193 1073.221394 1064.583686 1063.328815 C1082.229560 1056.049152 1099.549384 1047.978596 1117.200507 1040.712360 C1139.692938 1031.453083 1162.180365 1022.123249 1185.017523 1013.774128 C1218.321723 1001.598225 1251.774726 989.776325 1285.480902 978.773395 C1304.059394 972.708698 1323.266425 968.554035 1342.233100 963.706440 C1346.284491 962.671040 1347.694281 960.738544 1346.851996 955.814533 C1346.158881 951.762958 1345.248603 947.725849 1344.899237 943.642536 C1344.068549 933.935139 1343.488837 924.205707 1342.851752 914.482319 C1341.831244 898.901691 1340.763861 883.323505 1339.871283 867.735432 C1339.086005 854.021686 1338.458930 840.298176 1337.864569 826.574543 C1337.437811 816.719074 1337.139228 806.857441 1336.856269 796.996479 C1336.482489 783.972187 1336.148993 770.946613 1335.867743 757.920002 C1335.796820 754.638752 1335.740668 751.855793 1333.001654 749.021686 C1327.813788 743.654011 1329.785590 736.644794 1331.001044 730.357197 C1331.954657 725.423847 1334.012763 720.626179 1336.160224 716.039875 C1337.020941 714.201801 1339.533881 711.853046 1341.115546 711.979511 C1342.879828 712.120502 1345.136664 714.520100 1345.945746 716.452839 C1347.668891 720.569233 1348.572943 725.025837 1349.858222 729.329487 C1350.298773 730.804707 1350.707099 732.328266 1351.420478 733.676228 C1353.757636 738.093220 1355.525946 741.955158 1353.218207 747.581013 C1351.618109 751.482014 1353.375678 756.831684 1353.886054 761.506428 C1354.367377 765.916035 1355.436103 770.268757 1355.794623 774.683186 C1356.623847 784.891254 1357.136908 795.124653 1357.856879 805.342243 C1358.814032 818.927692 1359.780585 832.513081 1360.866522 846.088642 C1361.767157 857.346271 1362.747504 868.599445 1363.873358 879.836506 C1365.087958 891.959736 1366.599188 904.053242 1367.816352 916.176228 C1368.640204 924.382221 1368.967963 932.641010 1369.901435 940.832416 C1370.999945 950.471149 1372.548529 960.057819 1373.836737 969.675861 C1375.212836 979.948566 1376.238837 990.277058 1377.940863 1000.494099 C1379.116156 1007.550495 1380.457465 1014.759357 1383.177558 1021.295490 C1384.380438 1024.185627 1388.979193 1026.022785 1392.385321 1027.570026 C1403.699164 1032.709553 1413.041571 1039.902180 1418.846381 1051.649372 M1319.346381 981.649372 C1319.110541 981.885334 1318.916815 982.236286 1318.632636 982.340900 C1301.276190 988.722248 1283.877631 994.990803 1266.560492 1001.476765 C1253.436591 1006.392170 1240.416327 1011.583454 1227.348578 1016.648518 C1221.317206 1018.986286 1215.232733 1021.199055 1209.287055 1023.737141 C1207.913275 1024.323688 1207.009467 1026.011433 1205.889472 1027.192341 C1207.458441 1027.261311 1209.088690 1027.636921 1210.584174 1027.338459 C1214.241522 1026.608112 1217.792670 1025.296345 1221.464789 1024.699909 C1232.584418 1022.893635 1243.714789 1021.105549 1254.890570 1019.705402 C1267.473700 1018.128986 1280.090644 1016.719074 1292.732245 1015.750812 C1300.022284 1015.192463 1307.398871 1015.420978 1314.721137 1015.699909 C1327.451239 1016.184650 1340.167426 1017.036213 1352.897772 1017.509724 C1353.624335 1017.536823 1355.203925 1015.438190 1355.074530 1014.512165 C1353.473456 1003.059040 1351.404120 991.668537 1349.947699 980.199421 C1349.288886 975.010578 1348.022650 973.750690 1342.707587 975.280598 C1335.259833 977.424519 1327.800727 979.528400 1319.346381 981.649372 z"/><path class="selected"  fill="#443f42" opacity="1.000000" stroke="none" 
 	d="
M1748.096381 860.399372 C1739.245795 847.548786 1730.760199 834.866962 1721.968817 822.400959 C1719.581732 819.016010 1718.953436 816.080524 1721.944281 813.163105 C1723.805121 811.347736 1729.322699 813.092365 1731.430976 815.719501 C1738.361029 824.354755 1745.341254 832.949726 1752.273871 841.582905 C1764.710517 857.070209 1776.563178 873.024311 1785.374457 890.867145 C1791.933783 904.149799 1796.369574 918.135883 1798.051581 933.157612 C1800.337592 953.574665 1793.761054 970.854938 1782.129706 986.820270 C1772.124701 1000.553547 1760.562934 1012.889973 1746.884345 1023.003376 C1733.433295 1032.948566 1720.043036 1043.094685 1705.820380 1051.842731 C1692.516791 1060.025471 1678.154608 1066.536579 1662.330512 1068.618610 C1653.435858 1069.789020 1644.465399 1071.725544 1635.590277 1071.436237 C1613.830268 1070.726887 1593.519110 1064.461628 1574.758490 1053.135212 C1554.786688 1041.077717 1540.972357 1023.603596 1531.018012 1003.065266 C1525.639228 991.967243 1522.624335 979.860676 1521.856391 967.384357 C1521.465277 961.027424 1520.785224 954.655476 1520.922553 948.305195 C1521.294257 931.096027 1524.614203 914.342365 1529.163642 897.767597 C1533.978705 880.225300 1541.350043 863.692890 1550.286322 848.057636 C1558.678046 833.374897 1568.323432 819.299641 1578.528144 805.796833 C1586.671088 795.022053 1595.960394 784.967304 1605.683295 775.567768 C1619.539496 762.172749 1634.572211 750.027302 1651.885321 741.235798 C1661.533759 736.336384 1671.681342 732.895710 1682.810004 732.545246 C1696.120795 732.125996 1708.987982 740.951069 1712.826483 754.777851 C1716.537177 768.144306 1717.279486 781.586994 1713.885199 795.201618 C1710.376776 809.273823 1707.201605 823.428913 1703.835883 837.537067 C1702.407782 843.522907 1693.810370 848.292622 1687.567450 846.649372 C1682.306830 845.264728 1677.470648 836.540363 1678.972602 831.032612 C1682.482855 818.159687 1687.005194 805.464069 1689.247382 792.376240 C1690.944647 782.468281 1690.436835 772.007832 1689.588935 761.904194 C1689.083197 755.879169 1684.716376 754.466144 1678.761786 756.192524 C1665.312201 760.091999 1653.562689 767.136616 1643.045111 776.094562 C1631.970526 785.527058 1620.891425 795.061726 1610.769110 805.479328 C1596.790473 819.865559 1585.523261 836.408466 1575.202582 853.644794 C1566.261908 868.576252 1558.826850 884.164997 1553.539862 900.661945 C1550.499823 910.147724 1548.546820 920.059772 1546.990790 929.919758 C1545.631659 938.532368 1544.775458 947.359272 1544.993476 956.058979 C1545.514350 976.836872 1551.712836 995.688312 1564.831977 1012.305988 C1578.744330 1029.929035 1596.906317 1039.833088 1618.392279 1044.677448 C1638.721137 1049.261066 1658.300360 1046.546589 1677.215399 1038.584919 C1695.264594 1030.987751 1711.354926 1020.061848 1726.329413 1007.563801 C1735.710028 999.734699 1745.038031 991.760944 1753.649115 983.114704 C1761.809149 974.921589 1769.418158 966.035847 1773.820746 955.046040 C1777.722235 945.306477 1777.746894 935.002155 1776.438788 924.927814 C1774.836371 912.586994 1770.631415 900.851459 1764.818183 889.800068 C1760.636908 881.851154 1756.215888 874.027668 1751.848456 866.177875 C1750.789496 864.274738 1749.519477 862.489033 1748.096381 860.399372 z"/><path class="selected"  fill="#443f42" opacity="1.000000" stroke="none" 
 	d="
M1882.846381 1005.649372 C1882.817206 1013.434772 1879.148871 1018.378620 1872.695380 1021.236286 C1867.883856 1023.366657 1860.515936 1021.151081 1856.413886 1016.713337 C1852.887763 1012.898640 1851.943915 1005.776569 1853.778510 1001.576984 C1856.508978 995.326374 1861.265448 991.999958 1867.786078 991.759602 C1873.564154 991.546711 1880.123725 996.561481 1881.836371 1001.567097 C1882.237372 1002.739094 1882.513129 1003.954182 1882.846381 1005.649372 z"/><path class="selected"  fill="#443f42" opacity="1.000000" stroke="none" 
 	d="
M1485.096381 1039.399372 C1476.483344 1027.785847 1483.393866 1018.800129 1491.501776 1015.470417 C1498.410346 1012.633137 1507.473334 1016.344562 1509.944525 1024.245441 C1512.767401 1033.270954 1509.711859 1040.376789 1500.808173 1043.652302 C1494.720404 1045.892048 1489.652533 1044.258015 1485.096381 1039.399372 z"/></svg>